<?xml version="1.0" encoding="utf-8"?>
<!-- Generator: Adobe Illustrator 19.0.0, SVG Export Plug-In . SVG Version: 6.00 Build 0)  -->
<svg version="1.1" id="Layer_1" xmlns="http://www.w3.org/2000/svg" xmlns:xlink="http://www.w3.org/1999/xlink" x="0px" y="0px" style="enable-background:new 0 0 168 19;" xml:space="preserve">
<style type="text/css">
	.st0{enable-background:new    ;}
	.st1{fill:#D82F36;}
	.st2{fill:#FFFFFF;}
</style>
<g class="st0">
	<path class="st1" d="M8.6,0.6c1,0,1.9,0.2,2.8,0.6c0.9,0.4,1.6,0.9,2.3,1.5c0.7,0.7,1.2,1.4,1.5,2.3c0.4,0.9,0.6,1.8,0.6,2.8v10.9
		h-3.7v-3.6h-7v3.6H1.4V7.8c0-1,0.2-1.9,0.6-2.8c0.4-0.9,0.9-1.6,1.5-2.3s1.4-1.2,2.3-1.5C6.7,0.8,7.6,0.6,8.6,0.6z M12.1,7.8
		c0-0.5-0.1-0.9-0.3-1.4c-0.2-0.4-0.4-0.8-0.7-1.1S10.4,4.7,10,4.6C9.5,4.4,9.1,4.3,8.6,4.3c-0.5,0-0.9,0.1-1.4,0.3
		C6.8,4.7,6.4,5,6.1,5.3C5.8,5.6,5.6,6,5.4,6.4S5.1,7.3,5.1,7.8v3.6h7V7.8z"/>
	<path class="st1" d="M25.9,1.3C27,1.8,28,2.5,28.8,3.3c0.8,0.8,1.5,1.8,1.9,2.9c0.5,1.1,0.7,2.3,0.7,3.5c0,1.2-0.2,2.4-0.7,3.5
		c-0.5,1.1-1.1,2-1.9,2.9c-0.8,0.8-1.8,1.5-2.9,2c-1.1,0.5-2.3,0.7-3.5,0.7h-5.2v-3.6h5.2c0.7,0,1.4-0.1,2.1-0.4
		c0.7-0.3,1.2-0.7,1.7-1.2c0.5-0.5,0.9-1.1,1.2-1.7c0.3-0.7,0.4-1.3,0.4-2.1s-0.1-1.4-0.4-2.1s-0.7-1.2-1.2-1.7
		c-0.5-0.5-1.1-0.9-1.7-1.2c-0.7-0.3-1.3-0.4-2.1-0.4h-5.2V0.6h5.2C23.6,0.6,24.8,0.9,25.9,1.3z"/>
	<path class="st1" d="M40.5,4.3h-2V15h2v3.7h-7.6V15h2V4.3h-2V0.6h7.6V4.3z"/>
	<path class="st1" d="M57.1,6c0,0.7-0.1,1.4-0.4,2c-0.3,0.6-0.6,1.2-1,1.7c0.4,0.5,0.8,1,1,1.7c0.3,0.6,0.4,1.3,0.4,2v5.4h-3.6v-5.4
		c0-0.5-0.2-1-0.5-1.3c-0.4-0.4-0.8-0.6-1.3-0.6h-4.5V7.9h4.7c0.5,0,0.9-0.2,1.2-0.6c0.3-0.4,0.5-0.8,0.5-1.3c0-0.5-0.2-0.9-0.5-1.2
		c-0.3-0.4-0.7-0.6-1.2-0.6h-6.3v14.6h-3.7V0.6h9.9c0.7,0,1.4,0.1,2.1,0.4c0.7,0.3,1.2,0.7,1.7,1.2c0.5,0.5,0.9,1.1,1.1,1.7
		C57,4.5,57.1,5.2,57.1,6z"/>
	<path class="st1" d="M65.7,0.6c1,0,1.9,0.2,2.8,0.6c0.9,0.4,1.6,0.9,2.3,1.5C71.5,3.4,72,4.1,72.4,5c0.4,0.9,0.6,1.8,0.6,2.8v10.9
		h-3.7v-3.6h-7v3.6h-3.7V7.8c0-1,0.2-1.9,0.6-2.8c0.4-0.9,0.9-1.6,1.5-2.3s1.4-1.2,2.3-1.5C63.8,0.8,64.7,0.6,65.7,0.6z M69.2,7.8
		c0-0.5-0.1-0.9-0.3-1.4c-0.2-0.4-0.4-0.8-0.7-1.1s-0.7-0.6-1.1-0.7c-0.4-0.2-0.9-0.3-1.4-0.3c-0.5,0-0.9,0.1-1.4,0.3
		c-0.4,0.2-0.8,0.4-1.1,0.7c-0.3,0.3-0.6,0.7-0.7,1.1s-0.3,0.9-0.3,1.4v3.6h7V7.8z"/>
	<path class="st1" d="M83,1.3c1.1,0.5,2.1,1.1,2.9,1.9c0.8,0.8,1.5,1.8,1.9,2.9s0.7,2.3,0.7,3.5c0,1.2-0.2,2.4-0.7,3.5
		c-0.5,1.1-1.1,2-1.9,2.9c-0.8,0.8-1.8,1.5-2.9,2s-2.3,0.7-3.5,0.7h-5.2v-3.6h5.2c0.7,0,1.4-0.1,2.1-0.4c0.7-0.3,1.2-0.7,1.7-1.2
		c0.5-0.5,0.9-1.1,1.2-1.7c0.3-0.7,0.4-1.3,0.4-2.1s-0.1-1.4-0.4-2.1s-0.7-1.2-1.2-1.7c-0.5-0.5-1.1-0.9-1.7-1.2
		c-0.7-0.3-1.3-0.4-2.1-0.4h-5.2V0.6h5.2C80.8,0.6,81.9,0.9,83,1.3z"/>
	<path class="st1" d="M100.7,0.6h3.7v10.9c0,1-0.2,1.9-0.6,2.8s-0.9,1.6-1.5,2.3c-0.7,0.7-1.4,1.2-2.3,1.5c-0.9,0.4-1.8,0.6-2.8,0.6
		s-1.9-0.2-2.8-0.6c-0.9-0.4-1.6-0.9-2.3-1.5c-0.7-0.7-1.2-1.4-1.5-2.3c-0.4-0.9-0.6-1.8-0.6-2.8h3.7c0,0.5,0.1,0.9,0.3,1.4
		c0.2,0.4,0.4,0.8,0.7,1.1c0.3,0.3,0.7,0.6,1.1,0.7c0.4,0.2,0.9,0.3,1.4,0.3s0.9-0.1,1.4-0.3s0.8-0.4,1.1-0.7
		c0.3-0.3,0.6-0.7,0.7-1.1c0.2-0.4,0.3-0.9,0.3-1.4V0.6z"/>
	<path class="st1" d="M113,0.6c1,0,1.9,0.2,2.8,0.6c0.9,0.4,1.6,0.9,2.3,1.5c0.7,0.7,1.2,1.4,1.5,2.3c0.4,0.9,0.6,1.8,0.6,2.8v10.9
		h-3.7v-3.6h-7v3.6h-3.7V7.8c0-1,0.2-1.9,0.6-2.8c0.4-0.9,0.9-1.6,1.5-2.3c0.7-0.7,1.4-1.2,2.3-1.5C111.1,0.8,112,0.6,113,0.6z
		 M116.5,7.8c0-0.5-0.1-0.9-0.3-1.4s-0.4-0.8-0.7-1.1c-0.3-0.3-0.7-0.6-1.1-0.7c-0.4-0.2-0.9-0.3-1.4-0.3s-0.9,0.1-1.4,0.3
		c-0.4,0.2-0.8,0.4-1.1,0.7c-0.3,0.3-0.6,0.7-0.7,1.1s-0.3,0.9-0.3,1.4v3.6h7V7.8z"/>
</g>
<g class="st0">
	<path class="st2" d="M133.3,1.1c0.7,0.3,1.3,0.7,1.8,1.2c0.5,0.5,0.9,1.1,1.2,1.8c0.3,0.7,0.4,1.4,0.4,2.2c0,0.7-0.1,1.3-0.3,2
		c-0.2,0.6-0.5,1.2-0.9,1.7c-0.4,0.5-0.9,0.9-1.4,1.2c-0.6,0.3-1.2,0.6-1.8,0.7l0,0.1H127V8.4h4.1c0.6,0,1-0.2,1.4-0.6
		c0.4-0.4,0.6-0.9,0.6-1.4c0-0.5-0.2-1-0.5-1.3c-0.3-0.4-0.7-0.6-1.2-0.7h-6.1v14.4h-3.7V0.6h9.5C131.9,0.6,132.6,0.8,133.3,1.1z"/>
	<path class="st2" d="M145.8,4.3h-2V15h2v3.7h-7.6V15h2V4.3h-2V0.6h7.6V4.3z"/>
	<path class="st2" d="M154.4,0.6c1,0,1.9,0.2,2.8,0.6c0.9,0.4,1.6,0.9,2.3,1.5s1.2,1.4,1.5,2.3c0.4,0.9,0.6,1.8,0.6,2.8v10.9h-3.7
		V7.8c0-0.5-0.1-0.9-0.3-1.4c-0.2-0.4-0.4-0.8-0.7-1.1c-0.3-0.3-0.7-0.6-1.1-0.7c-0.4-0.2-0.9-0.3-1.4-0.3c-0.5,0-0.9,0.1-1.4,0.3
		c-0.4,0.2-0.8,0.4-1.1,0.7s-0.6,0.7-0.7,1.1c-0.2,0.4-0.3,0.9-0.3,1.4v10.9h-3.7V7.8c0-1,0.2-1.9,0.6-2.8c0.4-0.9,0.9-1.6,1.5-2.3
		c0.7-0.7,1.4-1.2,2.3-1.5C152.5,0.8,153.4,0.6,154.4,0.6z"/>
</g>
</svg>
